<?xml version="1.0" standalone="no"?>
<!DOCTYPE svg PUBLIC "-//W3C//DTD SVG 20010904//EN"
 "http://www.w3.org/TR/2001/REC-SVG-20010904/DTD/svg10.dtd">
<svg version="1.0" xmlns="http://www.w3.org/2000/svg"
 width="221.000000pt" height="50.000000pt" viewBox="0 0 221.000000 50.000000"
 preserveAspectRatio="xMidYMid meet">

<g transform="translate(0.000000,50.000000) scale(0.100000,-0.100000)"
fill="#000000" stroke="none">
<path d="M190 485 c0 -8 -9 -15 -20 -15 -15 0 -20 -7 -20 -25 0 -14 5 -25 10
-25 6 0 10 -13 10 -30 0 -19 -5 -30 -14 -30 -9 0 -12 -8 -8 -25 3 -16 11 -25
23 -25 11 0 19 -7 19 -15 0 -12 14 -15 65 -15 63 0 65 1 65 25 0 23 -4 25 -45
25 l-45 0 0 60 0 60 110 0 110 0 0 -30 c0 -28 2 -30 40 -30 l40 0 0 55 0 55
-170 0 c-144 0 -170 -2 -170 -15z"/>
<path d="M690 415 c0 -16 6 -25 15 -25 9 0 15 9 15 25 0 16 -6 25 -15 25 -9 0
-15 -9 -15 -25z"/>
<path d="M64 220 c0 -80 2 -112 3 -72 2 39 2 105 0 145 -1 39 -3 7 -3 -73z"/>
<path d="M678 305 c4 -50 5 -54 23 -45 25 14 27 85 3 94 -27 10 -29 7 -26 -49z"/>
<path d="M786 334 c-8 -21 -7 -66 2 -81 4 -6 25 -13 47 -15 33 -2 41 -7 43
-27 4 -23 2 -24 -47 -17 -47 6 -51 5 -51 -14 0 -18 6 -20 58 -20 74 0 84 8 80
56 -3 38 -4 39 -48 44 -40 4 -45 8 -48 33 -3 24 0 27 27 27 17 0 31 -4 31 -10
0 -5 9 -10 20 -10 15 0 20 7 20 25 0 24 -2 25 -64 25 -49 0 -65 -4 -70 -16z"/>
<path d="M1050 325 c0 -20 5 -25 24 -25 13 0 27 6 30 13 3 6 4 -25 3 -70 l-4
-83 39 0 c27 0 38 4 38 15 0 8 -4 15 -10 15 -6 0 -10 28 -10 65 0 37 4 65 10
65 6 0 10 -4 10 -10 0 -5 11 -10 25 -10 20 0 25 5 25 25 0 25 -1 25 -90 25
-89 0 -90 0 -90 -25z"/>
<path d="M1365 255 l0 -95 38 0 37 0 -6 40 c-6 38 -5 40 20 40 21 0 26 -5 26
-25 0 -14 -4 -25 -10 -25 -5 0 -10 -7 -10 -15 0 -11 11 -15 40 -15 29 0 40 4
40 15 0 8 -4 15 -10 15 -6 0 -10 28 -10 65 0 37 4 65 10 65 6 0 10 7 10 15 0
11 -11 15 -40 15 -38 0 -52 -12 -30 -25 6 -3 10 -19 10 -36 0 -25 -4 -29 -26
-29 -26 0 -27 1 -21 45 l7 45 -38 0 -37 0 0 -95z"/>
<path d="M1675 255 l0 -95 35 0 35 0 0 95 0 95 -35 0 -35 0 0 -95z"/>
<path d="M1892 338 c-7 -7 -12 -42 -12 -89 0 -89 0 -89 91 -89 56 0 59 1 59
25 0 20 -5 25 -25 25 -14 0 -25 -4 -25 -10 0 -5 -11 -10 -25 -10 -24 0 -25 2
-25 65 0 63 1 65 25 65 14 0 25 -4 25 -10 0 -5 11 -10 25 -10 20 0 25 5 25 25
0 24 -2 25 -63 25 -36 0 -68 -5 -75 -12z"/>
<path d="M380 305 c0 -22 4 -25 35 -25 32 0 35 -3 35 -27 0 -16 -3 -45 -6 -65
-6 -33 -10 -38 -35 -38 -21 0 -29 6 -32 23 -2 12 -5 -5 -5 -38 0 -33 2 -54 5
-47 3 7 23 12 49 12 24 0 44 5 44 10 0 6 14 10 30 10 l30 0 0 90 0 90 -30 0
c-20 0 -30 5 -30 15 0 11 -12 15 -45 15 -41 0 -45 -2 -45 -25z"/>
<path d="M150 145 l0 -45 84 0 c58 0 86 -4 89 -12 3 -7 5 14 5 47 0 33 -3 50
-5 38 -4 -20 -11 -23 -49 -23 -37 0 -44 3 -44 20 0 17 -7 20 -40 20 l-40 0 0
-45z"/>
<path d="M21 53 l-1 -33 75 0 75 0 -1 33 c-2 30 -2 30 -6 5 -4 -27 -6 -28 -68
-28 -62 0 -64 1 -68 28 -4 25 -4 25 -6 -5z"/>
<path d="M271 53 l-1 -33 75 0 75 0 -1 33 c-2 30 -2 30 -6 5 -4 -27 -6 -28
-68 -28 -62 0 -64 1 -68 28 -4 25 -4 25 -6 -5z"/>
</g>
</svg>
