<svg xmlns="http://www.w3.org/2000/svg" width="253" height="253" viewBox="0 0 253 253" version="1.1"><path d="M 65 93 L 65 96 74.500 96 L 84 96 84 120 L 84 144 88.500 144 L 93 144 93 120 L 93 96 102.500 96 L 112 96 112 93 L 112 90 88.500 90 L 65 90 65 93 M 99 102.325 C 99 102.504, 103.237 108.205, 108.416 114.995 L 117.832 127.339 112.097 134.920 C 108.943 139.089, 104.467 145.088, 102.150 148.250 L 97.937 154 102.930 154 L 107.923 154 115.354 143.936 L 122.785 133.871 130.500 143.936 L 138.214 154 144.118 154 L 150.021 154 140.416 141.467 C 134.598 133.876, 131.033 128.357, 131.373 127.470 C 131.682 126.664, 135.254 121.167, 139.310 115.253 C 143.366 109.339, 147.007 103.938, 147.401 103.250 C 147.933 102.322, 146.878 102.008, 143.309 102.030 L 138.500 102.060 132.073 111.530 C 128.538 116.739, 125.388 120.978, 125.073 120.951 C 124.758 120.924, 121.350 116.667, 117.500 111.491 L 110.500 102.079 104.750 102.040 C 101.588 102.018, 99 102.146, 99 102.325 M 155 146.500 L 155 174 159 174 L 163 174 163 163 L 163 152 167.851 152 C 177.054 152, 184.101 148.191, 187.095 141.599 C 190.848 133.335, 188.575 124.036, 182 120.752 C 179.265 119.385, 175.933 119.003, 166.750 119.002 L 155 119 155 146.500 M 163 135.636 L 163 146.272 167.373 145.673 C 173.506 144.832, 176.918 143.060, 178.575 139.855 C 180.345 136.433, 180.417 130.953, 178.723 128.636 C 177.349 126.756, 171.500 125.062, 166.250 125.024 L 163 125 163 135.636" stroke="none" fill="#f4f7fa" fill-rule="evenodd"/><path d="M 112 33.707 C 70.909 40.848, 39.707 74.292, 36.234 114.918 C 32.395 159.816, 59.182 198.628, 102.711 211.242 C 109.351 213.166, 112.860 213.499, 126.500 213.499 C 139.975 213.499, 143.684 213.155, 150 211.320 C 181.411 202.197, 204.345 179.915, 213.629 149.500 C 216.134 141.294, 216.382 139.045, 216.438 124 C 216.492 109.514, 216.210 106.486, 214.125 99.191 C 204.773 66.483, 177.844 41.389, 144.792 34.586 C 137.622 33.111, 118.397 32.595, 112 33.707 M 65 93 L 65 96 74.500 96 L 84 96 84 120 L 84 144 88.500 144 L 93 144 93 120 L 93 96 102.500 96 L 112 96 112 93 L 112 90 88.500 90 L 65 90 65 93 M 99 102.325 C 99 102.504, 103.237 108.205, 108.416 114.995 L 117.832 127.339 112.097 134.920 C 108.943 139.089, 104.467 145.088, 102.150 148.250 L 97.937 154 102.930 154 L 107.923 154 115.354 143.936 L 122.785 133.871 130.500 143.936 L 138.214 154 144.118 154 L 150.021 154 140.416 141.467 C 134.598 133.876, 131.033 128.357, 131.373 127.470 C 131.682 126.664, 135.254 121.167, 139.310 115.253 C 143.366 109.339, 147.007 103.938, 147.401 103.250 C 147.933 102.322, 146.878 102.008, 143.309 102.030 L 138.500 102.060 132.073 111.530 C 128.538 116.739, 125.388 120.978, 125.073 120.951 C 124.758 120.924, 121.350 116.667, 117.500 111.491 L 110.500 102.079 104.750 102.040 C 101.588 102.018, 99 102.146, 99 102.325 M 155 146.500 L 155 174 159 174 L 163 174 163 163 L 163 152 167.851 152 C 177.054 152, 184.101 148.191, 187.095 141.599 C 190.848 133.335, 188.575 124.036, 182 120.752 C 179.265 119.385, 175.933 119.003, 166.750 119.002 L 155 119 155 146.500 M 163 135.636 L 163 146.272 167.373 145.673 C 173.506 144.832, 176.918 143.060, 178.575 139.855 C 180.345 136.433, 180.417 130.953, 178.723 128.636 C 177.349 126.756, 171.500 125.062, 166.250 125.024 L 163 125 163 135.636" stroke="none" fill="#0473bb" fill-rule="evenodd"/></svg>