<svg xmlns="http://www.w3.org/2000/svg" width="221" height="50" viewBox="0 0 221 50" version="1.1"><path d="M 53 6 L 53 12 60.500 12 L 68 12 68 8.197 L 68 4.394 61.179 2.197 C 57.428 0.989, 54.053 0, 53.679 0 C 53.306 0, 53 2.700, 53 6 M 2 11 C 2 13.533, 2.389 14, 4.500 14 L 7 14 7 28 C 7 41.333, 6.905 42, 5 42 C 3.444 42, 3 42.667, 3 45 L 3 48 9.500 48 L 16 48 16 45 C 16 42.667, 15.556 42, 14 42 C 12.222 42, 12 41.333, 12 36 L 12 30 22 30 C 29.757 30, 32 30.305, 32 31.358 C 32 32.128, 30.162 33.158, 27.750 33.738 L 23.500 34.760 27.633 34.880 C 31.307 34.987, 31.825 35.305, 32.291 37.744 C 32.936 41.114, 32.446 42, 29.941 42 C 28.451 42, 28 42.697, 28 45 L 28 48 35 48 L 42 48 42 45 C 42 42.467, 41.611 42, 39.500 42 C 37.310 42, 37 41.567, 37 38.500 C 37 35.167, 37.167 35, 40.500 35 C 43.722 35, 44 34.762, 44 32 C 44 28.615, 44.056 28.648, 40.565 29.975 L 38 30.950 38 23.975 L 38 17 42.500 17 C 45.833 17, 47 17.389, 47 18.500 C 47 19.500, 48 20, 50 20 L 53 20 53 29.083 C 53 34.079, 53.360 38.017, 53.800 37.833 C 54.240 37.650, 57.140 35.475, 60.244 33 L 65.888 28.500 65.944 22.317 C 66.014 14.599, 65.792 14.496, 49.500 14.610 C 42.900 14.656, 38.513 14.507, 39.750 14.278 C 41.477 13.958, 42 13.179, 42 10.930 L 42 8 35 8 L 28 8 28 11 C 28 13.333, 28.444 14, 30 14 C 33.839 14, 31.966 15.888, 27.750 16.268 L 23.500 16.651 27.750 16.825 L 32 17 32 21 L 32 25 22 25 L 12 25 12 19.500 C 12 14.300, 12.136 14, 14.500 14 C 16.611 14, 17 13.533, 17 11 L 17 8 9.500 8 L 2 8 2 11 M 66 39.189 C 66 41.473, 66.337 41.622, 71.500 41.611 C 75.764 41.601, 77.016 41.250, 77.070 40.049 C 77.133 38.675, 77.218 38.672, 77.820 40.022 C 78.749 42.102, 85.274 42.128, 86.180 40.055 C 86.754 38.742, 86.870 38.775, 86.930 40.266 C 87.022 42.586, 92.964 42.365, 93.070 40.037 C 93.133 38.656, 93.210 38.657, 93.820 40.040 C 94.814 42.292, 101.364 42.054, 101.809 39.750 C 102.192 37.765, 99.999 37.401, 98.242 39.158 C 97.439 39.961, 96.689 40, 95.792 39.286 C 95.082 38.720, 90.675 38.193, 86 38.114 C 81.325 38.036, 75.588 37.816, 73.250 37.626 C 70.900 37.435, 69 37.720, 69 38.263 C 69 38.803, 68.325 38.685, 67.500 38 C 66.237 36.951, 66 37.139, 66 39.189 M 113 37.913 C 108.362 38.408, 107.500 38.814, 107.500 40.500 C 107.500 41.929, 108.071 42.418, 109.500 42.213 C 110.600 42.055, 115.227 41.849, 119.783 41.755 C 126.657 41.614, 128.014 41.322, 127.760 40.042 C 127.550 38.983, 126.286 38.500, 123.726 38.500 C 121.676 38.500, 119.999 38.163, 119.999 37.750 C 120 37.337, 119.662 37.073, 119.250 37.163 C 118.838 37.253, 116.025 37.590, 113 37.913 M 130.733 38.130 C 128.238 39.526, 129.749 41.873, 133.080 41.779 C 134.686 41.733, 136 41.314, 136 40.848 C 136 40.382, 136.033 39.685, 136.074 39.300 C 136.209 38.023, 132.411 37.191, 130.733 38.130 M 160.250 37.701 C 159.563 37.957, 159 38.778, 159 39.524 C 159 41.746, 161.210 42.433, 162.533 40.623 C 163.578 39.196, 163.849 39.164, 164.328 40.413 C 165.066 42.336, 168.979 42.027, 169.070 40.037 C 169.133 38.662, 169.212 38.663, 169.820 40.046 C 170.194 40.896, 171.625 41.592, 173 41.592 C 174.375 41.592, 175.806 40.896, 176.180 40.046 C 176.684 38.900, 176.878 39.081, 176.930 40.750 C 176.997 42.920, 180 44.123, 180 41.981 C 180 41.393, 181.058 41.228, 182.500 41.589 C 184.575 42.110, 185 41.858, 185 40.108 C 185 38.091, 183.683 37.488, 180 37.820 C 174.083 38.355, 166.999 38.399, 166.999 37.902 C 167 37.188, 162.026 37.040, 160.250 37.701 M 189.192 37.713 C 186.208 38.283, 186.673 41.457, 189.763 41.613 C 191.480 41.701, 192 41.177, 192 39.363 C 192 38.064, 191.887 37.061, 191.750 37.136 C 191.613 37.211, 190.461 37.471, 189.192 37.713 M 195.104 37.910 C 192.855 39.342, 194.552 41.683, 197.909 41.778 C 200.328 41.847, 201 41.446, 201 39.933 C 201 38.870, 200.587 38, 200.082 38 C 199.577 38, 198.564 37.780, 197.832 37.511 C 197.099 37.241, 195.872 37.421, 195.104 37.910 M 203 39.525 C 203 42.203, 205.043 42.508, 206.180 40 C 206.760 38.718, 206.870 38.735, 206.930 40.114 C 206.982 41.318, 208.015 41.727, 211 41.727 C 214.527 41.727, 215 41.450, 215 39.388 C 215 37.334, 214.709 37.160, 212.603 37.961 C 211.284 38.462, 210.047 38.741, 209.853 38.580 C 209.659 38.419, 208.037 38.009, 206.250 37.669 C 203.292 37.106, 203 37.272, 203 39.525 M 47 39.622 C 47 41.011, 47.252 41.052, 48.750 39.905 C 49.712 39.169, 50.688 38.439, 50.917 38.283 C 51.146 38.127, 50.358 38, 49.167 38 C 47.835 38, 47 38.625, 47 39.622 M 138.210 39.850 C 138.652 42.142, 149.168 42.297, 150.180 40.026 C 150.746 38.756, 150.871 38.793, 150.930 40.250 C 151.038 42.952, 157 42.706, 157 40 C 157 38.267, 156.333 38, 152 38 C 148.675 38, 146.995 38.419, 146.985 39.250 C 146.974 40.161, 146.770 40.188, 146.235 39.349 C 145.831 38.716, 143.788 38.198, 141.696 38.199 C 138.699 38.200, 137.959 38.550, 138.210 39.850" stroke="none" fill="#a6b0bd" fill-rule="evenodd"/><path d="M 19 1 C 19 1.550, 17.875 2, 16.500 2 C 14.513 2, 14 2.503, 14 4.452 C 14 6.756, 13.621 6.926, 7.750 7.260 C 1.574 7.610, 1.591 7.617, 9.250 7.807 L 17 8 17 11 C 17 13.533, 16.611 14, 14.500 14 C 12.136 14, 12 14.300, 12 19.500 L 12 25 22 25 L 32 25 32 21 L 32 17 28 17 L 24 17 24 11.500 L 24 6 34 6 L 44 6 44 9 C 44 11.889, 44.167 12, 48.500 12 L 53 12 53 6 L 53 0 36 0 C 25.333 0, 19 0.373, 19 1 M 68 8.393 C 68 11.574, 68.295 12, 70.500 12 C 72.611 12, 73 11.533, 73 9 C 73 7.350, 72.587 6, 72.082 6 C 71.577 6, 70.452 5.727, 69.582 5.393 C 68.320 4.909, 68 5.515, 68 8.393 M 27 10.883 C 27 14.232, 27.345 14.833, 29.500 15.245 C 30.875 15.508, 32 15.335, 32 14.861 C 32 14.388, 31.100 14, 30 14 C 28.444 14, 28 13.333, 28 11 L 28 8 35 8 L 42 8 42 10.930 C 42 13.174, 41.473 13.962, 39.750 14.294 C 37.821 14.666, 37.892 14.747, 40.250 14.864 C 42.814 14.991, 43 14.730, 43 11 L 43 7 35 7 L 27 7 27 10.883 M 3.750 14.706 C 5.945 15.129, 6 15.455, 6 28.070 C 6 40.333, 5.897 41, 4 41 C 2.333 41, 2 41.667, 2 45 L 2 49 9.500 49 L 17 49 17 45 L 17 41 22 41 L 27 41 27 45 L 27 49 35 49 L 43 49 43 45 C 43 41.667, 43.333 41, 45 41 C 46.111 41, 47 40.333, 47 39.500 C 47 38.500, 48 38, 50 38 L 53 38 53 29 L 53 20 50 20 C 48 20, 47 19.500, 47 18.500 C 47 17.389, 45.833 17, 42.500 17 C 38.167 17, 38 17.111, 38 20 C 38 22.667, 38.333 23, 41 23 L 44 23 44 29 L 44 35 40.500 35 C 37.167 35, 37 35.167, 37 38.500 C 37 41.567, 37.310 42, 39.500 42 C 41.611 42, 42 42.467, 42 45 L 42 48 35 48 L 28 48 28 45 C 28 42.697, 28.451 42, 29.941 42 C 32.446 42, 32.936 41.114, 32.291 37.744 C 31.827 35.313, 31.324 35, 27.883 35 C 24.667 35, 24 34.657, 24 33 C 24 31.267, 23.333 31, 19 31 L 14 31 13.832 36.250 L 13.664 41.500 13 35.500 L 12.336 29.500 12.168 35.750 C 12.016 41.389, 12.195 42, 14 42 C 15.556 42, 16 42.667, 16 45 L 16 48 9.500 48 L 3 48 3 45 C 3 42.667, 3.444 42, 5 42 C 6.905 42, 7 41.333, 7 28 L 7 14 4.250 14.136 C 1.892 14.253, 1.821 14.334, 3.750 14.706 M 59.500 14.655 C 66.487 16.132, 66 15.577, 66 22.070 L 66 28.102 69.500 25.432 C 72.410 23.212, 73 22.127, 73 18.988 C 73 14.450, 72.058 13.958, 63.668 14.116 C 60.276 14.180, 58.400 14.422, 59.500 14.655 M 78.202 20.250 L 78.500 26.500 82.750 26.807 C 86.186 27.056, 87 27.487, 87 29.057 C 87 31.222, 84.116 31.716, 82.267 29.867 C 80.517 28.117, 78 29.651, 78 32.469 C 78 34.899, 78.242 35, 84.071 35 C 91.133 35, 93 33.698, 93 28.771 C 93 24.411, 91.485 23, 86.800 23 C 83.413 23, 83 22.728, 83 20.500 C 83 18.667, 83.533 18, 85 18 C 86.111 18, 87 18.667, 87 19.500 C 87 20.500, 88 21, 90 21 C 92.762 21, 93 20.722, 93 17.500 L 93 14 85.452 14 L 77.905 14 78.202 20.250 M 105 17.613 C 105 21.094, 105.116 21.210, 108.133 20.767 L 111.265 20.307 110.710 27.654 L 110.154 35 114.108 35 C 116.899 35, 118.254 34.502, 118.711 33.310 C 119.073 32.366, 118.839 31.446, 118.180 31.227 C 117.414 30.971, 117.041 28.492, 117.116 24.167 C 117.180 20.500, 117.438 18.288, 117.689 19.250 C 117.966 20.310, 119.103 21, 120.573 21 C 122.680 21, 123 20.538, 123 17.500 L 123 14 114 14 L 105 14 105 17.613 M 136.500 24.500 L 136.500 35 140.191 35 C 144.151 35, 145.919 33.519, 144.113 31.713 C 142.213 29.813, 142.795 27, 145.088 27 C 146.970 27, 147.109 27.395, 146.500 31 L 145.824 35 149.943 35 C 152.888 35, 154.248 34.518, 154.711 33.310 C 155.073 32.366, 154.839 31.446, 154.180 31.227 C 152.715 30.738, 152.542 18, 154 18 C 154.550 18, 155 17.100, 155 16 C 155 14.292, 154.333 14, 150.439 14 L 145.877 14 146.552 18.500 C 147.171 22.627, 147.052 23, 145.114 23 C 143.575 23, 143 22.375, 143 20.700 C 143 19.435, 143.501 17.899, 144.113 17.287 C 145.919 15.481, 144.151 14, 140.191 14 L 136.500 14 136.500 24.500 M 166 16 C 166 17.100, 166.450 18, 167 18 C 167.564 18, 168 20.833, 168 24.500 C 168 28.167, 167.564 31, 167 31 C 166.450 31, 166 31.900, 166 33 C 166 34.686, 166.667 35, 170.250 35 L 174.500 35 174.500 24.500 L 174.500 14 170.250 14 C 166.667 14, 166 14.314, 166 16 M 188.607 15.582 C 188.273 16.452, 188 20.465, 188 24.500 C 188 35.010, 187.992 35, 196.107 35 L 203 35 203 31.500 C 203 28.278, 202.762 28, 200 28 C 198 28, 197 28.500, 197 29.500 C 197 30.325, 196.325 31, 195.500 31 C 194.321 31, 194 29.611, 194 24.500 C 194 19.389, 194.321 18, 195.500 18 C 196.325 18, 197 18.675, 197 19.500 C 197 20.500, 198 21, 200 21 C 202.762 21, 203 20.722, 203 17.500 L 203 14 196.107 14 C 190.744 14, 189.079 14.351, 188.607 15.582 M 13.150 19.250 L 13 24 22.250 23.807 C 29.709 23.652, 30.290 23.546, 25.250 23.260 C 20.615 22.996, 19 22.529, 19 21.452 C 19 20.580, 18.027 20, 16.566 20 C 14.679 20, 14.039 19.383, 13.716 17.250 C 13.459 15.551, 13.242 16.316, 13.150 19.250 M 31.079 31.583 C 31.127 32.748, 31.364 32.985, 31.683 32.188 C 31.972 31.466, 31.936 30.603, 31.604 30.271 C 31.272 29.939, 31.036 30.529, 31.079 31.583" stroke="none" fill="#0e73b9" fill-rule="evenodd"/></svg>